<?xml version="1.0" standalone="no"?>
<!DOCTYPE svg PUBLIC "-//W3C//DTD SVG 20010904//EN"
 "http://www.w3.org/TR/2001/REC-SVG-20010904/DTD/svg10.dtd">
<svg version="1.0" xmlns="http://www.w3.org/2000/svg"
 width="256.000000pt" height="256.000000pt" viewBox="0 0 256.000000 256.000000"
 preserveAspectRatio="xMidYMid meet">

<g transform="translate(0.000000,256.000000) scale(0.100000,-0.100000)"
fill="#000000" stroke="none">
<path d="M888 2032 c-48 -37 -88 -71 -89 -75 -1 -5 38 -71 86 -147 l86 -138
55 -4 c49 -3 58 0 81 25 15 15 30 27 33 27 4 0 8 -34 9 -75 l2 -75 -110 0
c-78 0 -111 -4 -114 -12 -3 -8 -6 -6 -6 5 -1 10 -22 44 -48 77 -46 58 -48 59
-51 32 -2 -18 13 -55 44 -110 l46 -82 98 0 97 0 18 40 c10 22 21 40 24 40 3 0
22 -30 41 -67 42 -80 47 -92 29 -75 -21 20 -24 15 -21 -40 l2 -53 -20 38 -20
37 -84 0 -83 0 -47 -77 c-37 -60 -46 -85 -44 -112 l3 -35 50 67 50 66 102 1
c76 0 111 -4 138 -17 33 -16 37 -16 70 0 27 13 62 17 138 17 l102 -1 50 -66
50 -67 3 38 c3 29 -4 49 -31 89 -19 29 -39 62 -46 75 -11 20 -19 22 -96 22
l-85 0 -20 -37 -20 -38 2 53 c3 55 0 60 -21 40 -18 -17 -13 -5 29 75 19 37 38
67 41 67 3 0 14 -18 24 -40 l18 -40 97 0 98 0 46 82 c31 55 46 92 44 110 -3
27 -5 26 -50 -32 -27 -33 -48 -67 -49 -77 0 -11 -3 -13 -6 -5 -3 8 -36 12
-114 12 l-110 0 2 75 c1 41 5 75 9 75 3 0 18 -12 33 -27 23 -25 32 -28 81 -25
l55 4 42 66 c23 37 63 101 90 144 l48 76 -94 71 c-52 39 -97 71 -100 71 -3 0
11 -31 30 -70 28 -55 38 -68 52 -63 10 4 -15 -33 -55 -82 -43 -52 -71 -96 -69
-105 3 -8 8 -24 12 -35 8 -19 6 -18 -17 3 -18 17 -36 22 -74 22 -43 0 -58 6
-112 45 l-62 45 -62 -45 c-56 -41 -67 -45 -118 -45 -44 0 -61 -4 -75 -20 -24
-27 -31 -18 -10 14 20 29 21 27 -64 130 -37 44 -58 77 -48 73 14 -5 24 7 52
63 19 39 32 70 28 69 -5 0 -47 -30 -95 -67z m358 -265 c-23 -29 -26 -44 -26
-108 0 -41 7 -98 14 -126 8 -29 12 -53 10 -53 -2 0 -15 22 -29 50 -20 40 -25
64 -25 129 l0 80 37 30 c21 17 39 31 41 31 2 0 -8 -15 -22 -33z"/>
<path d="M1187 1923 c-20 -36 -37 -69 -37 -73 0 -18 40 -20 66 -4 24 16 25 19
9 30 -16 12 -16 19 -6 60 7 25 11 48 9 50 -2 1 -20 -27 -41 -63z"/>
<path d="M1330 1986 c0 -4 5 -27 11 -52 10 -39 9 -46 -6 -58 -16 -11 -15 -14
9 -30 27 -17 66 -14 66 5 0 6 -16 38 -36 72 -39 67 -44 74 -44 63z"/>
<path d="M1219 1273 c0 -5 -1 -25 -1 -45 -1 -43 -4 -44 -55 -23 -35 15 -36 15
-82 -22 -25 -20 -47 -38 -49 -39 -4 -3 56 -205 63 -212 3 -3 5 38 5 91 0 75 3
95 13 91 7 -2 34 11 60 31 46 35 47 35 77 20 27 -14 33 -14 60 0 22 12 30 23
31 45 1 17 2 36 3 43 4 24 -5 27 -35 12 -26 -14 -32 -14 -59 0 -16 9 -30 12
-31 8z"/>
<path d="M1388 1203 c-21 -9 -38 -19 -38 -23 0 -14 84 -71 97 -66 10 4 13 -17
13 -91 0 -53 2 -94 5 -91 7 7 67 209 63 212 -2 1 -24 19 -49 39 -25 20 -48 37
-50 36 -2 -1 -21 -8 -41 -16z"/>
<path d="M1230 1103 c0 -33 4 -42 25 -51 19 -9 31 -9 50 0 21 9 25 18 25 51 0
33 -3 38 -17 32 -23 -10 -43 -10 -65 0 -15 6 -18 1 -18 -32z"/>
<path d="M1230 993 c0 -33 4 -42 25 -51 19 -9 31 -9 50 0 21 9 25 18 25 51 0
33 -3 38 -17 32 -23 -10 -43 -10 -65 0 -15 6 -18 1 -18 -32z"/>
<path d="M1216 898 c-7 -18 -28 -72 -46 -119 l-32 -87 78 -122 77 -122 79 122
78 121 -52 86 -53 86 -3 -58 c-3 -52 0 -61 24 -86 22 -23 24 -29 11 -29 -9 0
-17 -3 -17 -7 0 -5 -23 -33 -50 -63 -44 -48 -50 -51 -44 -28 5 23 -2 37 -37
80 -24 29 -36 49 -27 45 17 -6 25 13 74 174 3 10 -5 20 -21 27 -24 11 -27 10
-39 -20z"/>
</g>
</svg>
